<svg xmlns="http://www.w3.org/2000/svg" viewBox="0 0 64 64" role="img" aria-label="Mango">
  <defs>
    <linearGradient id="mango" x1="18" y1="52" x2="46" y2="12" gradientUnits="userSpaceOnUse">
      <stop offset="0" stop-color="#3a0ca3"/>
      <stop offset=".55" stop-color="#7b2ff7"/>
      <stop offset="1" stop-color="#f3e8ff"/>
    </linearGradient>
    <linearGradient id="leaf" x1="36" y1="17" x2="55" y2="8" gradientUnits="userSpaceOnUse">
      <stop offset="0" stop-color="#3f7f1f"/>
      <stop offset="1" stop-color="#8cc63f"/>
    </linearGradient>
    <filter id="softShadow" x="-20%" y="-20%" width="140%" height="140%">
      <feDropShadow dx="0" dy="4" stdDeviation="3" flood-color="#32104f" flood-opacity=".22"/>
    </filter>
  </defs>

  <rect width="64" height="64" rx="16" fill="#ffffff"/>
  <g filter="url(#softShadow)">
    <path fill="url(#mango)" d="M17 33c0-12.6 7.5-22 17.4-22C44 11 52 19.6 52 31.4 52 44.4 43.6 54 32.7 54 23.1 54 17 45.3 17 33Z"/>
    <path fill="#ffffff" fill-opacity=".42" d="M25.1 24.4c2.8-5.7 7.9-8.7 14.3-8.3 4.1.3 6.9 2.2 8.4 5.1-6.7-3-16.3-1-22.7 3.2Z"/>
    <path fill="url(#leaf)" d="M35.6 13.2C41.1 5.8 50.2 6 57 10.4c-4.9 7.4-13.4 9.8-21.4 4.8v-2Z"/>
    <path fill="none" stroke="#ffffff" stroke-linecap="round" stroke-width="2.2" d="M23.2 33.3c7.5 4.3 16.3 4.3 25.3 0"/>
    <path fill="none" stroke="#ffffff" stroke-linecap="round" stroke-opacity=".75" stroke-width="2" d="M24.7 42.2c6.2 3 13.8 3 21.4 0"/>
    <path fill="none" stroke="#d8b4fe" stroke-linecap="round" stroke-width="1.7" d="M11.5 22.5v-4M9.5 20.5h4M54.5 48.5v-4M52.5 46.5h4"/>
  </g>
</svg>
